:SAMPLES-PER-SECOND 30
:FULLY-SPECIFIED
:DEGREES
531
root  -4.00581 36.8221 -6.12911 -56.5319 -81.7089 42.2478
RightUpLeg  31.8773 -18.103 -21.313
RightLeg  35.28 7.45134 5.3774
RightFoot  -13.4842 0.352236 22.5105
RightToes  4.01633e-009 0 -3.6325e-017
Spine  13.3252 0.632903 -0.603849
Spine1  12.8846 2.70121 -8.8261
HEad  -1.32446 -1.75402 1.10826
LeftShoulder1  0.119034 3.16483 -29.0137
LeftArm  -9.60613 5.08259 -25.7833
LeftForeArm  51.3265 -78.1409 -63.8418
LeftHand  0.0495535 3.26309 -3.82634
RightShoulder  -0.368556 -4.53256 28.7177
RightArm  -5.37749 -11.1265 41.7379
RightForeArm  84.9437 78.5435 105.877
RightHand  -0.149326 -0.751011 -3.66599
LeftUpLeg  -14.0162 -3.3901 -15.3334
LeftLeg  25.599 5.8 3.36853
LeftFoot  3.46753 -1.66615 12.5809
LeftToes  -1.95724e-009 9.62483e-011 3.51777e-011
532
root  -5.38252 36.9445 -6.00118 -58.6518 -81.8414 44.9014
RightUpLeg  23.3031 -14.856 -20.1294
RightLeg  48.6301 6.14216 7.17882
RightFoot  0.390522 -1.84686 19.1641
RightToes  4.01633e-009 0 -3.6325e-017
Spine  13.2826 0.0373847 0.0371495
Spine1  12.7767 2.47504 -10.4585
HEad  -1.2701 -1.0588 0.38682
LeftShoulder1  0.10751 3.19906 -29.1275
LeftArm  -9.20175 4.52172 -26.4278
LeftForeArm  47.6063 -77.6998 -59.5871
LeftHand  0.0618666 3.00503 -3.94619
RightShoulder  -0.340338 -4.45932 28.4216
RightArm  -4.95523 -11.3701 41.126
RightForeArm  83.1082 78.5733 104.733
RightHand  -0.159385 -0.773743 -3.96832
LeftUpLeg  -13.299 -3.42839 -15.6568
LeftLeg  27.8746 6.42453 4.02126
LeftFoot  0.13329 -1.28691 12.7217
LeftToes  -1.95724e-009 9.62483e-011 3.51777e-011
533
root  -6.66362 37.1138 -5.96831 -69.9639 -81.7141 56.5022
RightUpLeg  14.5139 -10.9418 -19.7483
RightLeg  59.525 5.28389 9.0623
RightFoot  10.9106 -2.41918 12.2883
RightToes  4.01633e-009 0 -3.6325e-017
Spine  13.4247 0.348137 -1.99458
Spine1  12.946 2.24547 -9.81572
HEad  -1.88676 -0.270971 -0.806449
LeftShoulder1  0.128908 3.14213 -29.5074
LeftArm  -8.44379 4.01913 -26.7716
LeftForeArm  45.0274 -77.397 -57.4723
LeftHand  0.0732473 2.63561 -3.79264
RightShoulder  -0.288002 -4.31951 27.9736
RightArm  -4.92003 -10.7509 40.4452
RightForeArm  80.6262 78.5727 103.581
RightHand  -0.181981 -1.34276 -5.06504
LeftUpLeg  -11.6511 -2.07316 -16.5512
LeftLeg  28.34 6.68375 4.24811
LeftFoot  -2.5034 -0.936408 12.2685
LeftToes  -1.95724e-009 9.62483e-011 3.51777e-011
534
root  -7.92633 37.4474 -5.94462 -73.1481 -82.1189 59.8081
RightUpLeg  7.42959 -8.33972 -18.6172
RightLeg  66.4356 3.56645 8.33218
RightFoot  6.60303 -1.83026 11.823
RightToes  4.01633e-009 0 -3.6325e-017
Spine  13.4828 0.244942 -2.73557
Spine1  13.1697 1.75264 -9.05389
HEad  -2.18589 0.597262 -1.60403
LeftShoulder1  0.159006 3.05505 -29.3542
LeftArm  -7.24328 3.28374 -27.5656
LeftForeArm  41.0876 -76.8243 -53.6909
LeftHand  0.0470748 3.01179 -3.21867
RightShoulder  -0.337442 -4.45797 28.1929
RightArm  -5.47857 -10.1396 39.295
RightForeArm  80.7131 78.6229 103.059
RightHand  -0.168476 -0.818439 -4.20793
LeftUpLeg  -9.12286 -1.09399 -16.2239
LeftLeg  27.5012 6.49574 4.0143
LeftFoot  -4.4396 -0.697914 11.9708
LeftToes  -1.95724e-009 9.62483e-011 3.51777e-011
535
root  -9.15696 37.8444 -5.91837 -68.546 -82.8136 55.4217
RightUpLeg  0.791932 -6.69994 -16.7922
RightLeg  69.6447 2.88575 7.85431
RightFoot  5.22909 -1.33526 9.42032
RightToes  4.01633e-009 0 -3.6325e-017
Spine  13.3945 -0.18854 -2.77635
Spine1  13.2865 0.958213 -8.00293
HEad  -1.92347 1.05901 -2.27168
LeftShoulder1  0.257652 2.77 -28.957
LeftArm  -6.01674 2.72865 -28.8828
LeftForeArm  38.4066 -76.276 -50.4469
LeftHand  0.0431659 3.01505 -3.02529
RightShoulder  -0.339209 -4.46689 28.0588
RightArm  -6.71958 -10.613 38.6478
RightForeArm  82.4463 78.5288 104.891
RightHand  -0.156635 -0.632049 -3.78741
LeftUpLeg  -6.31286 -1.04086 -15.2423
LeftLeg  25.9596 6.28449 3.67917
LeftFoot  -5.88081 -0.518341 11.5726
LeftToes  -1.95724e-009 9.62483e-011 3.51777e-011
536
root  -10.3888 38.2581 -5.90434 -60.8944 -83.2283 48.2571
RightUpLeg  -5.27019 -5.24812 -14.9668
RightLeg  69.3867 2.48114 6.56467
RightFoot  3.9413 -1.18953 9.04218
RightToes  4.01633e-009 0 -3.6325e-017
Spine  12.848 -0.398758 -3.44906
Spine1  13.4526 0.103484 -6.04749
HEad  -1.2421 0.990666 -2.1684
LeftShoulder1  0.307402 2.63179 -29.1292
LeftArm  -4.72455 1.33286 -30.135
LeftForeArm  35.1661 -75.5194 -46.6938
LeftHand  0.0625068 2.61222 -3.28831
RightShoulder  -0.354692 -4.51692 27.8778
RightArm  -8.05949 -11.8626 37.7051
RightForeArm  86.3522 78.2239 109.435
RightHand  -0.186537 -1.27148 -5.05302
LeftUpLeg  -3.4341 -0.825934 -14.195
LeftLeg  23.6539 5.49554 2.9862
LeftFoot  -6.82414 -0.401732 11.1985
LeftToes  -1.95724e-009 9.62483e-011 3.51777e-011
537
root  -11.6471 38.6077 -5.90243 -51.4182 -83.4947 39.2107
RightUpLeg  -10.3227 -3.81797 -13.1849
RightLeg  66.108 2.50578 5.57342
RightFoot  2.72474 -0.935554 7.71876
RightToes  4.01633e-009 0 -3.6325e-017
Spine  12.4508 -0.925741 -3.80093
Spine1  13.2102 -0.831316 -4.73516
HEad  -0.84584 1.4776 -2.09249
LeftShoulder1  0.290392 2.677 -28.9944
LeftArm  -4.16429 0.84612 -31.2713
LeftForeArm  33.5225 -75.0945 -44.8806
LeftHand  0.0805367 2.42024 -3.72337
RightShoulder  -0.413936 -4.67602 28.3231
RightArm  -9.27653 -13.0344 36.7753
RightForeArm  92.201 77.8493 114.469
RightHand  -0.118379 -1.72762 -3.53144
LeftUpLeg  -0.522807 -0.510857 -12.9995
LeftLeg  21.4235 4.36275 2.2981
LeftFoot  -7.77963 -0.298304 11.0611
LeftToes  -1.95724e-009 9.62483e-011 3.51777e-011
538
root  -12.9442 38.8758 -5.90291 -45.3822 -83.8737 33.64
RightUpLeg  -14.2922 -1.74118 -11.5728
RightLeg  59.9368 2.55033 4.30236
RightFoot  1.47618 -0.786916 7.12861
RightToes  4.01633e-009 0 -3.6325e-017
Spine  11.8295 -1.27956 -4.35005
Spine1  12.9605 -1.59146 -3.34455
HEad  -0.262105 2.13906 -1.7937
LeftShoulder1  0.275433 2.71882 -28.9616
LeftArm  -3.60521 1.12526 -31.8782
LeftForeArm  33.9593 -75.3034 -45.8723
LeftHand  0.0360221 2.9104 -2.5218
RightShoulder  -0.404609 -4.65187 28.2286
RightArm  -10.1079 -14.4846 36.226
RightForeArm  96.4322 77.3299 119.138
RightHand  -0.137777 -1.5482 -3.9922
LeftUpLeg  2.26185 0.9409 -11.7129
LeftLeg  19.2746 2.74421 1.60031
LeftFoot  -8.84889 -0.18552 10.9757
LeftToes  -1.95724e-009 9.62483e-011 3.51777e-011
539
root  -14.2556 39.0172 -5.92391 -42.2997 -84.3303 30.8704
RightUpLeg  -16.7862 0.447201 -10.3105
RightLeg  51.1639 2.42321 2.86994
RightFoot  -0.49991 -0.777827 8.12313
RightToes  4.01633e-009 0 -3.6325e-017
Spine  10.916 -1.38914 -4.74989
Spine1  13.3152 -1.93221 -2.2304
HEad  -0.201416 2.8526 -1.58951
LeftShoulder1  0.292979 2.66503 -28.7977
LeftArm  -3.25845 1.064 -32.5492
LeftForeArm  34.4152 -75.3813 -46.1612
LeftHand  0.0490793 2.56254 -2.65167
RightShoulder  -0.439049 -4.74739 28.3561
RightArm  -10.6882 -15.7941 35.2445
RightForeArm  101.545 76.6065 124.395
RightHand  -0.140638 -0.802778 -3.47485
LeftUpLeg  4.95091 2.68487 -10.4409
LeftLeg  17.6469 1.22217 0.967868
LeftFoot  -10.297 -0.0407399 11.2055
LeftToes  -1.95724e-009 9.62483e-011 3.51777e-011
540
root  -15.5892 39.0555 -5.95706 -42.1624 -84.4973 31.1165
RightUpLeg  -18.0107 1.88417 -9.56387
RightLeg  40.047 2.22496 1.75064
RightFoot  -1.01454 -0.688391 7.53293
RightToes  4.01633e-009 0 -3.6325e-017
Spine  9.87906 -1.43929 -5.48492
Spine1  13.6993 -2.22904 -1.10458
HEad  -0.198085 3.03039 -2.00694
LeftShoulder1  0.277071 2.71424 -28.9587
LeftArm  -2.98703 1.09859 -32.8992
LeftForeArm  35.6517 -75.6143 -47.0853
LeftHand  0.035104 3.00481 -2.59439
RightShoulder  -0.418683 -4.69812 28.079
RightArm  -11.639 -17.2173 35.0832
RightForeArm  105.531 75.8608 128.654
RightHand  -0.139648 -1.13025 -3.67579
LeftUpLeg  7.46135 3.9489 -9.62903
LeftLeg  16.4169 0.120868 0.491163
LeftFoot  -11.919 0.127949 11.0868
LeftToes  -1.95724e-009 9.62483e-011 3.51777e-011
541
root  -16.9632 39.0125 -5.98158 -43.7629 -84.8848 33.1679
RightUpLeg  -17.8955 2.60982 -8.63544
RightLeg  26.8038 1.98988 0.917013
RightFoot  -1.13631 -0.698804 7.7233
RightToes  4.01633e-009 0 -3.6325e-017
Spine  8.67251 -1.45339 -5.93432
Spine1  14.1478 -2.37073 -0.101598
HEad  -0.472551 3.45563 -2.32202
LeftShoulder1  0.245608 2.80457 -29.0053
LeftArm  -2.90469 0.888626 -33.311
LeftForeArm  35.2139 -75.5477 -46.8461
LeftHand  0.0444323 3.0407 -3.07653
RightShoulder  -0.403551 -4.65468 28.0583
RightArm  -12.1489 -18.3266 34.7027
RightForeArm  108.958 75.1348 132.134
RightHand  -0.12465 -1.39769 -3.4482
LeftUpLeg  9.977 5.16947 -8.66421
LeftLeg  15.2294 -0.852355 -0.13791
LeftFoot  -13.6153 0.301113 10.9896
LeftToes  -1.95724e-009 9.62483e-011 3.51777e-011
542
root  -18.3563 38.8644 -6.0279 -52.3645 -84.8362 42.477
RightUpLeg  -17.4316 -0.102735 -7.54176
RightLeg  13.4897 3.82576 0.506349
RightFoot  -1.64707 -0.750195 8.71083
RightToes  4.01633e-009 0 -3.6325e-017
Spine  7.42123 -1.23628 -7.05159
Spine1  14.1921 -2.32335 1.09288
HEad  -0.3054 3.37776 -2.54995
LeftShoulder1  0.234324 2.84468 -29.4165
LeftArm  -2.38743 0.694253 -32.9543
LeftForeArm  35.5393 -75.6636 -47.4275
LeftHand  0.0175565 3.78797 -2.86173
RightShoulder  -0.409712 -4.67408 28.016
RightArm  -12.8865 -19.6021 34.646
RightForeArm  112.81 74.3582 135.434
RightHand  -0.115975 -1.77085 -3.46737
LeftUpLeg  12.183 6.09217 -8.37711
LeftLeg  14.2359 -1.58475 -1.02246
LeftFoot  -15.3875 0.477188 10.8501
LeftToes  -1.95724e-009 9.62483e-011 3.51777e-011
543
root  -19.747 38.6148 -6.18191 -63.7128 -84.3232 55.1868
RightUpLeg  -17.8624 -5.88897 -5.31928
RightLeg  2.36633 8.22721 -0.312734
RightFoot  -2.78275 -0.851979 11.1464
RightToes  4.01633e-009 0 -3.6325e-017
Spine  5.3881 -0.73973 -9.14682
Spine1  14.4844 -2.12845 2.93148
HEad  -0.0181412 3.18949 -3.03132
LeftShoulder1  0.25923 2.77698 -29.5557
LeftArm  -1.8831 0.417904 -32.6876
LeftForeArm  35.3217 -75.5856 -47.0308
LeftHand  0.0496004 2.90553 -3.11534
RightShoulder  -0.400806 -4.65029 27.9496
RightArm  -13.8643 -20.9009 34.9584
RightForeArm  115.63 73.6749 137.928
RightHand  -0.102568 -2.26141 -3.41678
LeftUpLeg  13.3288 6.78313 -8.54864
LeftLeg  13.9346 -1.98703 -1.94344
LeftFoot  -17.3722 0.655493 10.4374
LeftToes  -1.95724e-009 9.62483e-011 3.51777e-011
544
root  -21.1957 38.2367 -6.33623 -72.1239 -83.6066 64.7262
RightUpLeg  -18.8674 -5.5848 -4.60615
RightLeg  -3.30597 5.46792 -0.841627
RightFoot  -4.21138 -0.799008 12.1733
RightToes  4.01633e-009 0 -3.6325e-017
Spine  3.83363 -0.228933 -11.3409
Spine1  14.5248 -2.05437 5.05357
HEad  0.167566 2.82239 -3.35269
LeftShoulder1  0.188992 2.97692 -29.7374
LeftArm  -1.25444 -0.0268477 -32.6076
LeftForeArm  34.1238 -75.4643 -46.7447
LeftHand  0.0105008 3.63734 -2.13863
RightShoulder  -0.437954 -4.75601 28.0336
RightArm  -13.9533 -21.2863 34.6103
RightForeArm  117.001 73.2897 139.186
RightHand  -0.100853 -2.01279 -3.14401
LeftUpLeg  14.3665 7.59309 -8.77301
LeftLeg  14.6785 -2.60568 -2.55852
LeftFoot  -19.9314 0.863002 9.86167
LeftToes  -1.95724e-009 9.62483e-011 3.51777e-011
545
root  -22.6966 37.884 -6.37906 -74.8291 -83.5156 67.8826
RightUpLeg  -20.1245 -4.44757 -3.63276
RightLeg  -1.33932 1.74358 -0.847171
RightFoot  -4.31292 -0.546814 8.29383
RightToes  4.01633e-009 0 -3.6325e-017
Spine  3.19689 -0.03212 -10.9733
Spine1  14.7044 -1.94962 5.50802
HEad  0.140654 2.97709 -4.12969
LeftShoulder1  0.193196 2.9673 -29.8929
LeftArm  -1.01527 -0.193614 -32.8726
LeftForeArm  33.593 -75.1717 -45.2709
LeftHand  0.033083 3.20288 -2.80702
RightShoulder  -0.455894 -4.80628 28.0862
RightArm  -13.88 -21.2677 34.1051
RightForeArm  117.542 73.1792 139.556
RightHand  -0.100446 -1.80358 -2.98126
LeftUpLeg  16.1468 8.77221 -8.14055
LeftLeg  15.6799 -3.66406 -2.79457
LeftFoot  -22.1439 1.00856 9.23996
LeftToes  -1.95724e-009 9.62483e-011 3.51777e-011
